<mxfile host="Electron" modified="2024-04-06T22:05:08.332Z" agent="Mozilla/5.0 (X11; Linux x86_64) AppleWebKit/537.36 (KHTML, like Gecko) draw.io/24.1.0 Chrome/120.0.6099.109 Electron/28.1.0 Safari/537.36" etag="7lm3LMe0yL5YhP3e7QLb" version="24.1.0" type="device">
  <diagram name="Page-1" id="SzZSaSLvAbvqqZiqP-JE">
    <mxGraphModel dx="2874" dy="1238" grid="1" gridSize="10" guides="1" tooltips="1" connect="1" arrows="1" fold="1" page="0" pageScale="1" pageWidth="850" pageHeight="1100" math="0" shadow="0">
      <root>
        <mxCell id="0" />
        <mxCell id="1" parent="0" />
        <mxCell id="xsc2IUABmwJiQl77QG9d-1" value="Intreview APP Flow" style="text;strokeColor=none;fillColor=none;html=1;align=center;verticalAlign=middle;whiteSpace=wrap;rounded=0;fontSize=16;" parent="1" vertex="1">
          <mxGeometry x="55" y="-178" width="223" height="51" as="geometry" />
        </mxCell>
        <mxCell id="xsc2IUABmwJiQl77QG9d-6" value="" style="edgeStyle=none;curved=1;rounded=0;orthogonalLoop=1;jettySize=auto;html=1;fontSize=12;startSize=8;endSize=8;" parent="1" source="xsc2IUABmwJiQl77QG9d-2" target="xsc2IUABmwJiQl77QG9d-5" edge="1">
          <mxGeometry relative="1" as="geometry" />
        </mxCell>
        <mxCell id="xsc2IUABmwJiQl77QG9d-2" value="Frontend" style="rounded=1;whiteSpace=wrap;html=1;fontSize=16;" parent="1" vertex="1">
          <mxGeometry x="-257" y="-14" width="120" height="60" as="geometry" />
        </mxCell>
        <mxCell id="xsc2IUABmwJiQl77QG9d-4" value="Backend" style="rounded=1;whiteSpace=wrap;html=1;fontSize=16;" parent="1" vertex="1">
          <mxGeometry x="85" y="444" width="120" height="60" as="geometry" />
        </mxCell>
        <mxCell id="xsc2IUABmwJiQl77QG9d-8" value="" style="edgeStyle=none;curved=1;rounded=0;orthogonalLoop=1;jettySize=auto;html=1;fontSize=12;startSize=8;endSize=8;" parent="1" source="xsc2IUABmwJiQl77QG9d-5" target="xsc2IUABmwJiQl77QG9d-7" edge="1">
          <mxGeometry relative="1" as="geometry" />
        </mxCell>
        <mxCell id="xsc2IUABmwJiQl77QG9d-10" value="" style="edgeStyle=none;curved=1;rounded=0;orthogonalLoop=1;jettySize=auto;html=1;fontSize=12;startSize=8;endSize=8;" parent="1" source="xsc2IUABmwJiQl77QG9d-5" target="xsc2IUABmwJiQl77QG9d-9" edge="1">
          <mxGeometry relative="1" as="geometry" />
        </mxCell>
        <mxCell id="xsc2IUABmwJiQl77QG9d-5" value="Dashboard" style="rounded=1;whiteSpace=wrap;html=1;fontSize=16;" parent="1" vertex="1">
          <mxGeometry x="-40" y="-14" width="120" height="60" as="geometry" />
        </mxCell>
        <mxCell id="xsc2IUABmwJiQl77QG9d-7" value="Acesso a Quiz de entrevias" style="rounded=1;whiteSpace=wrap;html=1;fontSize=16;" parent="1" vertex="1">
          <mxGeometry x="200" y="-14" width="120" height="60" as="geometry" />
        </mxCell>
        <mxCell id="xsc2IUABmwJiQl77QG9d-12" value="" style="edgeStyle=none;curved=1;rounded=0;orthogonalLoop=1;jettySize=auto;html=1;fontSize=12;startSize=8;endSize=8;" parent="1" source="xsc2IUABmwJiQl77QG9d-9" target="xsc2IUABmwJiQl77QG9d-11" edge="1">
          <mxGeometry relative="1" as="geometry" />
        </mxCell>
        <mxCell id="xsc2IUABmwJiQl77QG9d-14" value="" style="edgeStyle=none;curved=1;rounded=0;orthogonalLoop=1;jettySize=auto;html=1;fontSize=12;startSize=8;endSize=8;" parent="1" source="xsc2IUABmwJiQl77QG9d-9" target="xsc2IUABmwJiQl77QG9d-13" edge="1">
          <mxGeometry relative="1" as="geometry" />
        </mxCell>
        <mxCell id="xsc2IUABmwJiQl77QG9d-9" value="Area Logada" style="rounded=1;whiteSpace=wrap;html=1;fontSize=16;" parent="1" vertex="1">
          <mxGeometry x="205" y="109" width="120" height="60" as="geometry" />
        </mxCell>
        <mxCell id="xsc2IUABmwJiQl77QG9d-11" value="Feedback, Progresso,&lt;br&gt;Respostas gravadas&lt;br&gt;" style="rounded=1;whiteSpace=wrap;html=1;fontSize=16;" parent="1" vertex="1">
          <mxGeometry x="445" y="109" width="176" height="91" as="geometry" />
        </mxCell>
        <mxCell id="xsc2IUABmwJiQl77QG9d-13" value="Enviar perguntas" style="rounded=1;whiteSpace=wrap;html=1;fontSize=16;" parent="1" vertex="1">
          <mxGeometry x="443" y="274" width="120" height="60" as="geometry" />
        </mxCell>
        <mxCell id="xsc2IUABmwJiQl77QG9d-15" value="&lt;ul&gt;&lt;li&gt;Usuario tem acesso a suas respostas anteriores&lt;/li&gt;&lt;li&gt;Usu치rio tem acesso a suas notas&lt;/li&gt;&lt;li&gt;Usu치rio pode cadastrar/sugerir perguntas de entrevistas&lt;/li&gt;&lt;li&gt;Usu치rio pode contratar consultoria para entrevistas&lt;/li&gt;&lt;li&gt;Usu치rio tem acesso a quiz com chatGPT para ajudar&amp;nbsp;&lt;/li&gt;&lt;/ul&gt;" style="text;strokeColor=none;fillColor=none;html=1;align=left;verticalAlign=middle;whiteSpace=wrap;rounded=0;fontSize=16;" parent="1" vertex="1">
          <mxGeometry x="678" y="89" width="220" height="85" as="geometry" />
        </mxCell>
        <mxCell id="rgrQJqtuLM8Di_6Ja3vg-5" value="" style="edgeStyle=orthogonalEdgeStyle;rounded=0;orthogonalLoop=1;jettySize=auto;html=1;" parent="1" source="xsc2IUABmwJiQl77QG9d-16" target="xsc2IUABmwJiQl77QG9d-29" edge="1">
          <mxGeometry relative="1" as="geometry" />
        </mxCell>
        <mxCell id="5kY83aBNe3LM7Y091x4s-20" style="edgeStyle=orthogonalEdgeStyle;rounded=0;orthogonalLoop=1;jettySize=auto;html=1;entryX=0.25;entryY=0;entryDx=0;entryDy=0;" edge="1" parent="1" source="xsc2IUABmwJiQl77QG9d-16" target="xsc2IUABmwJiQl77QG9d-20">
          <mxGeometry relative="1" as="geometry" />
        </mxCell>
        <mxCell id="5kY83aBNe3LM7Y091x4s-21" style="edgeStyle=orthogonalEdgeStyle;rounded=0;orthogonalLoop=1;jettySize=auto;html=1;entryX=0.657;entryY=0;entryDx=0;entryDy=0;entryPerimeter=0;" edge="1" parent="1" source="xsc2IUABmwJiQl77QG9d-16" target="rgrQJqtuLM8Di_6Ja3vg-6">
          <mxGeometry relative="1" as="geometry">
            <mxPoint x="220" y="1030" as="targetPoint" />
            <Array as="points">
              <mxPoint x="212" y="710" />
            </Array>
          </mxGeometry>
        </mxCell>
        <mxCell id="xsc2IUABmwJiQl77QG9d-16" value="User" style="swimlane;fontStyle=0;childLayout=stackLayout;horizontal=1;startSize=30;horizontalStack=0;resizeParent=1;resizeParentMax=0;resizeLast=0;collapsible=1;marginBottom=0;whiteSpace=wrap;html=1;fontSize=16;" parent="1" vertex="1">
          <mxGeometry y="650" width="140" height="120" as="geometry" />
        </mxCell>
        <mxCell id="xsc2IUABmwJiQl77QG9d-17" value="Item 1" style="text;strokeColor=none;fillColor=none;align=left;verticalAlign=middle;spacingLeft=4;spacingRight=4;overflow=hidden;points=[[0,0.5],[1,0.5]];portConstraint=eastwest;rotatable=0;whiteSpace=wrap;html=1;fontSize=16;" parent="xsc2IUABmwJiQl77QG9d-16" vertex="1">
          <mxGeometry y="30" width="140" height="30" as="geometry" />
        </mxCell>
        <mxCell id="xsc2IUABmwJiQl77QG9d-18" value="Item 2" style="text;strokeColor=none;fillColor=none;align=left;verticalAlign=middle;spacingLeft=4;spacingRight=4;overflow=hidden;points=[[0,0.5],[1,0.5]];portConstraint=eastwest;rotatable=0;whiteSpace=wrap;html=1;fontSize=16;" parent="xsc2IUABmwJiQl77QG9d-16" vertex="1">
          <mxGeometry y="60" width="140" height="30" as="geometry" />
        </mxCell>
        <mxCell id="xsc2IUABmwJiQl77QG9d-19" value="Item 3" style="text;strokeColor=none;fillColor=none;align=left;verticalAlign=middle;spacingLeft=4;spacingRight=4;overflow=hidden;points=[[0,0.5],[1,0.5]];portConstraint=eastwest;rotatable=0;whiteSpace=wrap;html=1;fontSize=16;" parent="xsc2IUABmwJiQl77QG9d-16" vertex="1">
          <mxGeometry y="90" width="140" height="30" as="geometry" />
        </mxCell>
        <mxCell id="xsc2IUABmwJiQl77QG9d-20" value="Questions" style="swimlane;fontStyle=0;childLayout=stackLayout;horizontal=1;startSize=30;horizontalStack=0;resizeParent=1;resizeParentMax=0;resizeLast=0;collapsible=1;marginBottom=0;whiteSpace=wrap;html=1;fontSize=16;" parent="1" vertex="1">
          <mxGeometry x="-170" y="1040" width="140" height="120" as="geometry" />
        </mxCell>
        <mxCell id="xsc2IUABmwJiQl77QG9d-21" value="Item 1" style="text;strokeColor=none;fillColor=none;align=left;verticalAlign=middle;spacingLeft=4;spacingRight=4;overflow=hidden;points=[[0,0.5],[1,0.5]];portConstraint=eastwest;rotatable=0;whiteSpace=wrap;html=1;fontSize=16;" parent="xsc2IUABmwJiQl77QG9d-20" vertex="1">
          <mxGeometry y="30" width="140" height="30" as="geometry" />
        </mxCell>
        <mxCell id="xsc2IUABmwJiQl77QG9d-22" value="Item 2" style="text;strokeColor=none;fillColor=none;align=left;verticalAlign=middle;spacingLeft=4;spacingRight=4;overflow=hidden;points=[[0,0.5],[1,0.5]];portConstraint=eastwest;rotatable=0;whiteSpace=wrap;html=1;fontSize=16;" parent="xsc2IUABmwJiQl77QG9d-20" vertex="1">
          <mxGeometry y="60" width="140" height="30" as="geometry" />
        </mxCell>
        <mxCell id="xsc2IUABmwJiQl77QG9d-23" value="Item 3" style="text;strokeColor=none;fillColor=none;align=left;verticalAlign=middle;spacingLeft=4;spacingRight=4;overflow=hidden;points=[[0,0.5],[1,0.5]];portConstraint=eastwest;rotatable=0;whiteSpace=wrap;html=1;fontSize=16;" parent="xsc2IUABmwJiQl77QG9d-20" vertex="1">
          <mxGeometry y="90" width="140" height="30" as="geometry" />
        </mxCell>
        <mxCell id="xsc2IUABmwJiQl77QG9d-26" value="Planos" style="swimlane;fontStyle=0;childLayout=stackLayout;horizontal=1;startSize=30;horizontalStack=0;resizeParent=1;resizeParentMax=0;resizeLast=0;collapsible=1;marginBottom=0;whiteSpace=wrap;html=1;fontSize=16;" parent="1" vertex="1">
          <mxGeometry x="-255" y="654" width="140" height="120" as="geometry" />
        </mxCell>
        <mxCell id="xsc2IUABmwJiQl77QG9d-27" value="Item 1" style="text;strokeColor=none;fillColor=none;align=left;verticalAlign=middle;spacingLeft=4;spacingRight=4;overflow=hidden;points=[[0,0.5],[1,0.5]];portConstraint=eastwest;rotatable=0;whiteSpace=wrap;html=1;fontSize=16;" parent="xsc2IUABmwJiQl77QG9d-26" vertex="1">
          <mxGeometry y="30" width="140" height="30" as="geometry" />
        </mxCell>
        <mxCell id="xsc2IUABmwJiQl77QG9d-28" value="Item 2" style="text;strokeColor=none;fillColor=none;align=left;verticalAlign=middle;spacingLeft=4;spacingRight=4;overflow=hidden;points=[[0,0.5],[1,0.5]];portConstraint=eastwest;rotatable=0;whiteSpace=wrap;html=1;fontSize=16;" parent="xsc2IUABmwJiQl77QG9d-26" vertex="1">
          <mxGeometry y="60" width="140" height="30" as="geometry" />
        </mxCell>
        <mxCell id="xsc2IUABmwJiQl77QG9d-29" value="Item 3" style="text;strokeColor=none;fillColor=none;align=left;verticalAlign=middle;spacingLeft=4;spacingRight=4;overflow=hidden;points=[[0,0.5],[1,0.5]];portConstraint=eastwest;rotatable=0;whiteSpace=wrap;html=1;fontSize=16;" parent="xsc2IUABmwJiQl77QG9d-26" vertex="1">
          <mxGeometry y="90" width="140" height="30" as="geometry" />
        </mxCell>
        <mxCell id="rgrQJqtuLM8Di_6Ja3vg-1" value="Companies" style="swimlane;fontStyle=0;childLayout=stackLayout;horizontal=1;startSize=30;horizontalStack=0;resizeParent=1;resizeParentMax=0;resizeLast=0;collapsible=1;marginBottom=0;whiteSpace=wrap;html=1;fontSize=16;" parent="1" vertex="1">
          <mxGeometry x="270" y="650" width="140" height="110" as="geometry" />
        </mxCell>
        <mxCell id="rgrQJqtuLM8Di_6Ja3vg-2" value="Item 1" style="text;strokeColor=none;fillColor=none;align=left;verticalAlign=middle;spacingLeft=4;spacingRight=4;overflow=hidden;points=[[0,0.5],[1,0.5]];portConstraint=eastwest;rotatable=0;whiteSpace=wrap;html=1;fontSize=16;" parent="rgrQJqtuLM8Di_6Ja3vg-1" vertex="1">
          <mxGeometry y="30" width="140" height="30" as="geometry" />
        </mxCell>
        <mxCell id="rgrQJqtuLM8Di_6Ja3vg-3" value="Item 2" style="text;strokeColor=none;fillColor=none;align=left;verticalAlign=middle;spacingLeft=4;spacingRight=4;overflow=hidden;points=[[0,0.5],[1,0.5]];portConstraint=eastwest;rotatable=0;whiteSpace=wrap;html=1;fontSize=16;" parent="rgrQJqtuLM8Di_6Ja3vg-1" vertex="1">
          <mxGeometry y="60" width="140" height="30" as="geometry" />
        </mxCell>
        <mxCell id="rgrQJqtuLM8Di_6Ja3vg-4" value="Item 3" style="text;strokeColor=none;fillColor=none;align=left;verticalAlign=middle;spacingLeft=4;spacingRight=4;overflow=hidden;points=[[0,0.5],[1,0.5]];portConstraint=eastwest;rotatable=0;whiteSpace=wrap;html=1;fontSize=16;" parent="rgrQJqtuLM8Di_6Ja3vg-1" vertex="1">
          <mxGeometry y="90" width="140" height="20" as="geometry" />
        </mxCell>
        <mxCell id="5kY83aBNe3LM7Y091x4s-17" style="edgeStyle=orthogonalEdgeStyle;rounded=0;orthogonalLoop=1;jettySize=auto;html=1;" edge="1" parent="1" source="rgrQJqtuLM8Di_6Ja3vg-6" target="5kY83aBNe3LM7Y091x4s-13">
          <mxGeometry relative="1" as="geometry" />
        </mxCell>
        <mxCell id="rgrQJqtuLM8Di_6Ja3vg-6" value="Code Challenge" style="swimlane;fontStyle=0;childLayout=stackLayout;horizontal=1;startSize=30;horizontalStack=0;resizeParent=1;resizeParentMax=0;resizeLast=0;collapsible=1;marginBottom=0;whiteSpace=wrap;html=1;fontSize=16;" parent="1" vertex="1">
          <mxGeometry x="120" y="1040" width="140" height="120" as="geometry" />
        </mxCell>
        <mxCell id="rgrQJqtuLM8Di_6Ja3vg-7" value="Item 1" style="text;strokeColor=none;fillColor=none;align=left;verticalAlign=middle;spacingLeft=4;spacingRight=4;overflow=hidden;points=[[0,0.5],[1,0.5]];portConstraint=eastwest;rotatable=0;whiteSpace=wrap;html=1;fontSize=16;" parent="rgrQJqtuLM8Di_6Ja3vg-6" vertex="1">
          <mxGeometry y="30" width="140" height="30" as="geometry" />
        </mxCell>
        <mxCell id="rgrQJqtuLM8Di_6Ja3vg-8" value="Item 2" style="text;strokeColor=none;fillColor=none;align=left;verticalAlign=middle;spacingLeft=4;spacingRight=4;overflow=hidden;points=[[0,0.5],[1,0.5]];portConstraint=eastwest;rotatable=0;whiteSpace=wrap;html=1;fontSize=16;" parent="rgrQJqtuLM8Di_6Ja3vg-6" vertex="1">
          <mxGeometry y="60" width="140" height="30" as="geometry" />
        </mxCell>
        <mxCell id="rgrQJqtuLM8Di_6Ja3vg-9" value="Item 3" style="text;strokeColor=none;fillColor=none;align=left;verticalAlign=middle;spacingLeft=4;spacingRight=4;overflow=hidden;points=[[0,0.5],[1,0.5]];portConstraint=eastwest;rotatable=0;whiteSpace=wrap;html=1;fontSize=16;" parent="rgrQJqtuLM8Di_6Ja3vg-6" vertex="1">
          <mxGeometry y="90" width="140" height="30" as="geometry" />
        </mxCell>
        <mxCell id="5kY83aBNe3LM7Y091x4s-6" style="edgeStyle=orthogonalEdgeStyle;rounded=0;orthogonalLoop=1;jettySize=auto;html=1;" edge="1" parent="1" source="5kY83aBNe3LM7Y091x4s-2">
          <mxGeometry relative="1" as="geometry">
            <mxPoint x="-90" y="1030" as="targetPoint" />
          </mxGeometry>
        </mxCell>
        <mxCell id="5kY83aBNe3LM7Y091x4s-2" value="Exam" style="swimlane;fontStyle=0;childLayout=stackLayout;horizontal=1;startSize=30;horizontalStack=0;resizeParent=1;resizeParentMax=0;resizeLast=0;collapsible=1;marginBottom=0;whiteSpace=wrap;html=1;fontSize=16;" vertex="1" parent="1">
          <mxGeometry x="-40" y="820" width="140" height="120" as="geometry" />
        </mxCell>
        <mxCell id="5kY83aBNe3LM7Y091x4s-3" value="Item 1" style="text;strokeColor=none;fillColor=none;align=left;verticalAlign=middle;spacingLeft=4;spacingRight=4;overflow=hidden;points=[[0,0.5],[1,0.5]];portConstraint=eastwest;rotatable=0;whiteSpace=wrap;html=1;fontSize=16;" vertex="1" parent="5kY83aBNe3LM7Y091x4s-2">
          <mxGeometry y="30" width="140" height="30" as="geometry" />
        </mxCell>
        <mxCell id="5kY83aBNe3LM7Y091x4s-4" value="Item 2" style="text;strokeColor=none;fillColor=none;align=left;verticalAlign=middle;spacingLeft=4;spacingRight=4;overflow=hidden;points=[[0,0.5],[1,0.5]];portConstraint=eastwest;rotatable=0;whiteSpace=wrap;html=1;fontSize=16;" vertex="1" parent="5kY83aBNe3LM7Y091x4s-2">
          <mxGeometry y="60" width="140" height="30" as="geometry" />
        </mxCell>
        <mxCell id="5kY83aBNe3LM7Y091x4s-5" value="Item 3" style="text;strokeColor=none;fillColor=none;align=left;verticalAlign=middle;spacingLeft=4;spacingRight=4;overflow=hidden;points=[[0,0.5],[1,0.5]];portConstraint=eastwest;rotatable=0;whiteSpace=wrap;html=1;fontSize=16;" vertex="1" parent="5kY83aBNe3LM7Y091x4s-2">
          <mxGeometry y="90" width="140" height="30" as="geometry" />
        </mxCell>
        <mxCell id="5kY83aBNe3LM7Y091x4s-7" style="edgeStyle=orthogonalEdgeStyle;rounded=0;orthogonalLoop=1;jettySize=auto;html=1;" edge="1" parent="1" source="5kY83aBNe3LM7Y091x4s-4" target="rgrQJqtuLM8Di_6Ja3vg-6">
          <mxGeometry relative="1" as="geometry" />
        </mxCell>
        <mxCell id="5kY83aBNe3LM7Y091x4s-8" value="Questions Categories" style="swimlane;fontStyle=0;childLayout=stackLayout;horizontal=1;startSize=50;horizontalStack=0;resizeParent=1;resizeParentMax=0;resizeLast=0;collapsible=1;marginBottom=0;whiteSpace=wrap;html=1;fontSize=16;" vertex="1" parent="1">
          <mxGeometry x="-420" y="1140" width="150" height="140" as="geometry" />
        </mxCell>
        <mxCell id="5kY83aBNe3LM7Y091x4s-9" value="Item 1" style="text;strokeColor=none;fillColor=none;align=left;verticalAlign=middle;spacingLeft=4;spacingRight=4;overflow=hidden;points=[[0,0.5],[1,0.5]];portConstraint=eastwest;rotatable=0;whiteSpace=wrap;html=1;fontSize=16;" vertex="1" parent="5kY83aBNe3LM7Y091x4s-8">
          <mxGeometry y="50" width="150" height="30" as="geometry" />
        </mxCell>
        <mxCell id="5kY83aBNe3LM7Y091x4s-10" value="Item 2" style="text;strokeColor=none;fillColor=none;align=left;verticalAlign=middle;spacingLeft=4;spacingRight=4;overflow=hidden;points=[[0,0.5],[1,0.5]];portConstraint=eastwest;rotatable=0;whiteSpace=wrap;html=1;fontSize=16;" vertex="1" parent="5kY83aBNe3LM7Y091x4s-8">
          <mxGeometry y="80" width="150" height="30" as="geometry" />
        </mxCell>
        <mxCell id="5kY83aBNe3LM7Y091x4s-11" value="Item 3" style="text;strokeColor=none;fillColor=none;align=left;verticalAlign=middle;spacingLeft=4;spacingRight=4;overflow=hidden;points=[[0,0.5],[1,0.5]];portConstraint=eastwest;rotatable=0;whiteSpace=wrap;html=1;fontSize=16;" vertex="1" parent="5kY83aBNe3LM7Y091x4s-8">
          <mxGeometry y="110" width="150" height="30" as="geometry" />
        </mxCell>
        <mxCell id="5kY83aBNe3LM7Y091x4s-12" style="edgeStyle=orthogonalEdgeStyle;rounded=0;orthogonalLoop=1;jettySize=auto;html=1;entryX=0.75;entryY=0;entryDx=0;entryDy=0;" edge="1" parent="1" source="xsc2IUABmwJiQl77QG9d-21" target="5kY83aBNe3LM7Y091x4s-8">
          <mxGeometry relative="1" as="geometry" />
        </mxCell>
        <mxCell id="5kY83aBNe3LM7Y091x4s-13" value="Code Challenge Categories" style="swimlane;fontStyle=0;childLayout=stackLayout;horizontal=1;startSize=50;horizontalStack=0;resizeParent=1;resizeParentMax=0;resizeLast=0;collapsible=1;marginBottom=0;whiteSpace=wrap;html=1;fontSize=16;" vertex="1" parent="1">
          <mxGeometry x="360" y="1160" width="150" height="140" as="geometry" />
        </mxCell>
        <mxCell id="5kY83aBNe3LM7Y091x4s-14" value="Item 1" style="text;strokeColor=none;fillColor=none;align=left;verticalAlign=middle;spacingLeft=4;spacingRight=4;overflow=hidden;points=[[0,0.5],[1,0.5]];portConstraint=eastwest;rotatable=0;whiteSpace=wrap;html=1;fontSize=16;" vertex="1" parent="5kY83aBNe3LM7Y091x4s-13">
          <mxGeometry y="50" width="150" height="30" as="geometry" />
        </mxCell>
        <mxCell id="5kY83aBNe3LM7Y091x4s-15" value="Item 2" style="text;strokeColor=none;fillColor=none;align=left;verticalAlign=middle;spacingLeft=4;spacingRight=4;overflow=hidden;points=[[0,0.5],[1,0.5]];portConstraint=eastwest;rotatable=0;whiteSpace=wrap;html=1;fontSize=16;" vertex="1" parent="5kY83aBNe3LM7Y091x4s-13">
          <mxGeometry y="80" width="150" height="30" as="geometry" />
        </mxCell>
        <mxCell id="5kY83aBNe3LM7Y091x4s-16" value="Item 3" style="text;strokeColor=none;fillColor=none;align=left;verticalAlign=middle;spacingLeft=4;spacingRight=4;overflow=hidden;points=[[0,0.5],[1,0.5]];portConstraint=eastwest;rotatable=0;whiteSpace=wrap;html=1;fontSize=16;" vertex="1" parent="5kY83aBNe3LM7Y091x4s-13">
          <mxGeometry y="110" width="150" height="30" as="geometry" />
        </mxCell>
        <mxCell id="5kY83aBNe3LM7Y091x4s-19" style="edgeStyle=orthogonalEdgeStyle;rounded=0;orthogonalLoop=1;jettySize=auto;html=1;" edge="1" parent="1" target="5kY83aBNe3LM7Y091x4s-2">
          <mxGeometry relative="1" as="geometry">
            <mxPoint x="340" y="760" as="sourcePoint" />
            <Array as="points">
              <mxPoint x="340" y="830" />
            </Array>
          </mxGeometry>
        </mxCell>
      </root>
    </mxGraphModel>
  </diagram>
</mxfile>
